<?xml version="1.0" encoding="utf-8"?>
<!-- Generator: Adobe Illustrator 16.0.0, SVG Export Plug-In . SVG Version: 6.00 Build 0)  -->
<!DOCTYPE svg PUBLIC "-//W3C//DTD SVG 1.1//EN" "http://www.w3.org/Graphics/SVG/1.1/DTD/svg11.dtd">
<svg version="1.1" id="Layer_1" xmlns="http://www.w3.org/2000/svg" xmlns:xlink="http://www.w3.org/1999/xlink" x="0px" y="0px"
	 width="32px" height="32px" viewBox="0 0 32 32" enable-background="new 0 0 32 32" xml:space="preserve">
<path fill="#5B77EE" d="M22.739,6.982c-0.88,0-1.597-0.716-1.597-1.596c0-0.881,0.716-1.597,1.597-1.597s1.597,0.716,1.597,1.597
	C24.335,6.267,23.619,6.982,22.739,6.982z M22.739,4.789c-0.329,0-0.597,0.268-0.597,0.597c0,0.329,0.268,0.596,0.597,0.596
	s0.597-0.268,0.597-0.596C23.335,5.057,23.068,4.789,22.739,4.789z"/>
<path fill="#5B77EE" d="M21.642,21.967h-2.07c-4.831,0-4.887-3.632-4.887-3.668V4.886h2.693v1h-1.693v12.413
	c0.001,0.106,0.08,2.668,3.887,2.668h2.07c3.842,0,3.886-2.56,3.886-2.668V5.886h-1.692v-1h2.692v13.413
	C26.528,18.335,26.472,21.967,21.642,21.967z"/>
<path fill="#5B77EE" d="M18.474,6.982c-0.88,0-1.596-0.716-1.596-1.596c0-0.881,0.716-1.597,1.596-1.597
	c0.881,0,1.598,0.716,1.598,1.597C20.072,6.267,19.355,6.982,18.474,6.982z M18.474,4.789c-0.329,0-0.596,0.268-0.596,0.597
	c0,0.329,0.267,0.596,0.596,0.596c0.33,0,0.598-0.268,0.598-0.596C19.072,5.057,18.804,4.789,18.474,4.789z"/>
<path fill="#5B77EE" d="M17.917,28.211h-7.083c-0.029,0-0.734-0.003-1.445-0.277c-1.022-0.394-1.586-1.166-1.586-2.173v-7.613h1
	v7.613c0,0.376,0.098,0.914,0.945,1.24c0.531,0.205,1.081,0.21,1.086,0.21h7.083c1.928,0,2.173-1.465,2.195-1.632l-0.004-4.112h1
	v4.172C21.005,26.566,20.21,28.211,17.917,28.211z"/>
<circle fill="#5B77EE" cx="8.302" cy="15.864" r="2.33"/>
</svg>
