<?xml version="1.0" encoding="utf-8"?>
<!-- Generator: Adobe Illustrator 16.0.0, SVG Export Plug-In . SVG Version: 6.00 Build 0)  -->
<!DOCTYPE svg PUBLIC "-//W3C//DTD SVG 1.1//EN" "http://www.w3.org/Graphics/SVG/1.1/DTD/svg11.dtd">
<svg version="1.1" id="Layer_1" xmlns="http://www.w3.org/2000/svg" xmlns:xlink="http://www.w3.org/1999/xlink" x="0px" y="0px"
	 width="32px" height="32px" viewBox="0 0 32 32" enable-background="new 0 0 32 32" xml:space="preserve">
<path fill="#5B77EE" d="M26.933,24.788c-0.006,0-0.013,0-0.02,0H5.052c-0.161,0-0.312-0.077-0.405-0.208
	c-0.095-0.13-0.12-0.298-0.069-0.45L8.16,13.395c0.068-0.204,0.26-0.342,0.475-0.342h14.784c0.217,0,0.408,0.139,0.476,0.345
	l3.453,10.611c0.054,0.08,0.085,0.176,0.085,0.279C27.433,24.564,27.209,24.788,26.933,24.788z M5.746,23.788h20.479l-3.169-9.735
	H8.995L5.746,23.788z"/>
<path fill="#5B77EE" d="M22.066,24.788c-0.006,0-0.014,0-0.02,0H9.86c-0.157,0-0.305-0.073-0.399-0.199
	c-0.095-0.125-0.124-0.288-0.081-0.438l3.059-10.673c0.021-0.721,0.286-6.265,3.545-6.265c0.693,0,1.299,0.258,1.8,0.768
	c1.501,1.523,1.566,4.923,1.566,5.502l3.139,10.538c0.05,0.077,0.078,0.17,0.078,0.269C22.566,24.564,22.343,24.788,22.066,24.788z
	 M10.523,23.788h10.853L18.37,13.695c-0.015-0.048-0.021-0.099-0.021-0.15c0.015-0.978-0.188-3.758-1.279-4.865
	c-0.311-0.315-0.666-0.468-1.087-0.468c-2.398,0-2.546,5.295-2.547,5.349c-0.001,0.044-0.007,0.087-0.02,0.13L10.523,23.788z"/>
<path fill="#5B77EE" d="M15.983,22.011c-0.276,0-0.5-0.224-0.5-0.5v-5.007c0-0.276,0.224-0.5,0.5-0.5s0.5,0.224,0.5,0.5v5.007
	C16.483,21.787,16.26,22.011,15.983,22.011z"/>
<path fill="#5B77EE" d="M18.456,19.507h-5.005c-0.276,0-0.5-0.224-0.5-0.5s0.224-0.5,0.5-0.5h5.005c0.276,0,0.5,0.224,0.5,0.5
	S18.732,19.507,18.456,19.507z"/>
</svg>
