<?xml version="1.0" encoding="utf-8"?>
<!-- Generator: Adobe Illustrator 16.0.0, SVG Export Plug-In . SVG Version: 6.00 Build 0)  -->
<!DOCTYPE svg PUBLIC "-//W3C//DTD SVG 1.1//EN" "http://www.w3.org/Graphics/SVG/1.1/DTD/svg11.dtd">
<svg version="1.1" id="Layer_1" xmlns="http://www.w3.org/2000/svg" xmlns:xlink="http://www.w3.org/1999/xlink" x="0px" y="0px"
	 width="32px" height="32px" viewBox="0 0 32 32" enable-background="new 0 0 32 32" xml:space="preserve">
<path fill="#5B77EE" d="M17.648,26.45c-0.333,0-0.647-0.093-0.934-0.178c-0.251-0.073-0.488-0.144-0.701-0.144
	c-3.05,0-7.108-2.167-7.572-4.857l0.985-0.17c0.368,2.131,3.989,4.027,6.586,4.027c0.356,0,0.689,0.098,0.983,0.185
	c0.315,0.093,0.588,0.174,0.801,0.119l0.121-0.03l0.121,0.03c0.216,0.055,0.487-0.026,0.802-0.119
	c0.293-0.087,0.626-0.185,0.982-0.185c4.034,0,7.315-3.281,7.315-7.314c0-4.034-3.282-7.315-7.315-7.315
	c-0.595,0-1.195,0.075-1.784,0.222l-0.121,0.03l-0.121-0.03c-0.589-0.147-1.189-0.222-1.784-0.222c-2.638,0-6.027,2.427-6.594,4.721
	L8.449,14.98c0.683-2.767,4.43-5.481,7.564-5.481c0.636,0,1.276,0.075,1.905,0.222c0.629-0.147,1.27-0.222,1.905-0.222
	c4.585,0,8.315,3.73,8.315,8.315s-3.73,8.314-8.315,8.314c-0.212,0-0.449,0.069-0.7,0.144c-0.363,0.108-0.771,0.23-1.205,0.155
	C17.828,26.443,17.737,26.45,17.648,26.45z"/>
<rect x="17.419" y="6.05" fill="#5B77EE" width="1" height="6.582"/>
<path fill="#5B77EE" d="M17.919,10.089h-0.552l0.054-0.549c0.015-0.149,0.429-3.66,6.408-3.66h0.608L24.32,6.477
	C24.291,6.624,23.545,10.089,17.919,10.089z M23.079,6.901c-3.044,0.176-4.108,1.416-4.475,2.168
	C21.481,8.9,22.635,7.671,23.079,6.901z"/>
<path fill="#5B77EE" d="M2.412,15.1c4.237,0,19.957,0,19.957,0v6.086c0,0-15.021,0-19.957,0C0.891,21.187,0.891,15.1,2.412,15.1z"/>
<path fill="#FFFFFF" d="M3.696,21.687c-0.276,0-0.5-0.224-0.5-0.5v-2.055c0-0.276,0.224-0.5,0.5-0.5s0.5,0.224,0.5,0.5v2.055
	C4.196,21.463,3.973,21.687,3.696,21.687z"/>
<path fill="#FFFFFF" d="M5.647,21.687c-0.276,0-0.5-0.224-0.5-0.5v-3.7c0-0.276,0.224-0.5,0.5-0.5s0.5,0.224,0.5,0.5v3.7
	C6.147,21.463,5.924,21.687,5.647,21.687z"/>
<path fill="#FFFFFF" d="M7.961,21.687c-0.276,0-0.5-0.224-0.5-0.5v-2.055c0-0.276,0.224-0.5,0.5-0.5s0.5,0.224,0.5,0.5v2.055
	C8.461,21.463,8.237,21.687,7.961,21.687z"/>
<path fill="#FFFFFF" d="M10.885,21.687c-0.276,0-0.5-0.224-0.5-0.5v-2.055c0-0.276,0.224-0.5,0.5-0.5s0.5,0.224,0.5,0.5v2.055
	C11.385,21.463,11.161,21.687,10.885,21.687z"/>
<path fill="#FFFFFF" d="M13.052,21.687c-0.276,0-0.5-0.224-0.5-0.5v-3.7c0-0.276,0.224-0.5,0.5-0.5s0.5,0.224,0.5,0.5v3.7
	C13.552,21.463,13.328,21.687,13.052,21.687z"/>
<path fill="#FFFFFF" d="M15.512,21.687c-0.276,0-0.5-0.224-0.5-0.5v-2.055c0-0.276,0.224-0.5,0.5-0.5s0.5,0.224,0.5,0.5v2.055
	C16.012,21.463,15.788,21.687,15.512,21.687z"/>
<path fill="#FFFFFF" d="M18.287,21.687c-0.276,0-0.5-0.224-0.5-0.5v-2.055c0-0.276,0.224-0.5,0.5-0.5s0.5,0.224,0.5,0.5v2.055
	C18.787,21.463,18.563,21.687,18.287,21.687z"/>
</svg>
