<?xml version="1.0" encoding="utf-8"?>
<!-- Generator: Adobe Illustrator 16.0.0, SVG Export Plug-In . SVG Version: 6.00 Build 0)  -->
<!DOCTYPE svg PUBLIC "-//W3C//DTD SVG 1.1//EN" "http://www.w3.org/Graphics/SVG/1.1/DTD/svg11.dtd">
<svg version="1.1" id="Layer_1" xmlns="http://www.w3.org/2000/svg" xmlns:xlink="http://www.w3.org/1999/xlink" x="0px" y="0px"
	 width="32px" height="32px" viewBox="0 0 32 32" enable-background="new 0 0 32 32" xml:space="preserve">
<rect x="21.809" y="6.139" fill="#5B77EE" width="5.197" height="1"/>
<rect x="21.809" y="8.284" fill="#5B77EE" width="5.197" height="1"/>
<g>
	<path fill="#5B77EE" d="M14.009,13.999c-2.599,0-4.712-2.114-4.712-4.713s2.113-4.712,4.712-4.712s4.712,2.113,4.712,4.712
		S16.607,13.999,14.009,13.999z M14.009,5.574c-2.047,0-3.712,1.665-3.712,3.712s1.665,3.713,3.712,3.713s3.712-1.666,3.712-3.713
		S16.056,5.574,14.009,5.574z"/>
	<path fill="#5B77EE" d="M14.009,10.079c-1.195,0-2.167-0.972-2.167-2.167s0.972-2.168,2.167-2.168s2.167,0.973,2.167,2.168
		S15.204,10.079,14.009,10.079z M14.009,6.744c-0.644,0-1.167,0.524-1.167,1.168s0.523,1.167,1.167,1.167s1.167-0.523,1.167-1.167
		S14.652,6.744,14.009,6.744z"/>
	<rect x="9.983" y="8.289" fill="#5B77EE" width="2.442" height="1"/>
	<rect x="15.485" y="8.289" fill="#5B77EE" width="2.502" height="1"/>
	<path fill="#5B77EE" d="M17.369,29.932c-0.736,0-1.601-0.068-2.294-0.123c-0.479-0.038-0.89-0.071-1.138-0.071
		c-1.715,0-3.358-0.763-4.628-2.147c-1.453-1.582-2.287-3.85-2.287-6.222c0-4.615,3.103-8.369,6.915-8.369s6.914,3.754,6.914,8.369
		c0,0.597,0.023,1.201,0.046,1.798c0.102,2.639,0.206,5.366-1.889,6.51C18.688,29.853,18.181,29.932,17.369,29.932z M13.938,13.999
		c-3.262,0-5.915,3.306-5.915,7.369c0,2.124,0.737,4.146,2.023,5.546c1.078,1.176,2.461,1.823,3.892,1.823
		c0.266,0,0.704,0.034,1.216,0.074c0.677,0.054,1.519,0.12,2.216,0.12c0.852,0,1.104-0.102,1.16-0.133
		c1.551-0.847,1.467-3.047,1.369-5.595c-0.023-0.609-0.047-1.227-0.047-1.836C19.852,17.305,17.198,13.999,13.938,13.999z"/>
	<rect x="13.482" y="7.063" fill="#5B77EE" width="1" height="1.726"/>
	<rect x="13.146" y="7.426" fill="#5B77EE" width="1.725" height="1"/>
</g>
<polygon fill="#5B77EE" points="20.797,13.282 20.09,12.573 21.894,10.775 27.297,10.775 27.297,11.775 22.308,11.775 "/>
<text transform="matrix(1 0 0 1 11.3125 24.4619)" fill="#5B77EE" font-family="'MyriadPro-Regular'" font-size="14.051">s</text>
</svg>
