<?xml version="1.0" encoding="utf-8"?>
<!-- Generator: Adobe Illustrator 16.0.0, SVG Export Plug-In . SVG Version: 6.00 Build 0)  -->
<!DOCTYPE svg PUBLIC "-//W3C//DTD SVG 1.1//EN" "http://www.w3.org/Graphics/SVG/1.1/DTD/svg11.dtd">
<svg version="1.1" id="Layer_1" xmlns="http://www.w3.org/2000/svg" xmlns:xlink="http://www.w3.org/1999/xlink" x="0px" y="0px"
	 width="32px" height="32px" viewBox="0 0 32 32" enable-background="new 0 0 32 32" xml:space="preserve">
<path fill="#5B77EE" d="M15.612,13.663c0,0.919-0.744,1.662-1.662,1.662H7.774c-0.919,0-1.662-0.743-1.662-1.662V7.488
	c0-0.918,0.743-1.664,1.662-1.664h6.176c0.918,0,1.662,0.746,1.662,1.664V13.663z"/>
<path fill="#5B77EE" d="M25.394,15.825h-6.175c-1.192,0-2.163-0.97-2.163-2.162V7.488c0-1.193,0.971-2.164,2.163-2.164h6.175
	c1.192,0,2.162,0.971,2.162,2.164v6.175C27.556,14.855,26.586,15.825,25.394,15.825z M19.219,6.324
	c-0.642,0-1.163,0.522-1.163,1.164v6.175c0,0.641,0.521,1.162,1.163,1.162h6.175c0.641,0,1.162-0.521,1.162-1.162V7.488
	c0-0.642-0.521-1.164-1.162-1.164H19.219z"/>
<path fill="#5B77EE" d="M13.95,27.055H7.774c-1.192,0-2.162-0.971-2.162-2.164v-6.175c0-1.192,0.97-2.162,2.162-2.162h6.176
	c1.192,0,2.162,0.97,2.162,2.162v6.175C16.112,26.084,15.143,27.055,13.95,27.055z M7.774,17.554c-0.641,0-1.162,0.521-1.162,1.162
	v6.175c0,0.642,0.521,1.164,1.162,1.164h6.176c0.641,0,1.162-0.522,1.162-1.164v-6.175c0-0.641-0.521-1.162-1.162-1.162H7.774z"/>
<path fill="#5B77EE" d="M25.394,27.055h-6.175c-1.192,0-2.163-0.971-2.163-2.164v-6.175c0-1.192,0.971-2.162,2.163-2.162h6.175
	c1.192,0,2.162,0.97,2.162,2.162v6.175C27.556,26.084,26.586,27.055,25.394,27.055z M19.219,17.554
	c-0.642,0-1.163,0.521-1.163,1.162v6.175c0,0.642,0.521,1.164,1.163,1.164h6.175c0.641,0,1.162-0.522,1.162-1.164v-6.175
	c0-0.641-0.521-1.162-1.162-1.162H19.219z"/>
</svg>
