<?xml version="1.0" encoding="utf-8"?>
<!-- Generator: Adobe Illustrator 16.0.0, SVG Export Plug-In . SVG Version: 6.00 Build 0)  -->
<!DOCTYPE svg PUBLIC "-//W3C//DTD SVG 1.1//EN" "http://www.w3.org/Graphics/SVG/1.1/DTD/svg11.dtd">
<svg version="1.1" id="Layer_1" xmlns="http://www.w3.org/2000/svg" xmlns:xlink="http://www.w3.org/1999/xlink" x="0px" y="0px"
	 width="32px" height="32px" viewBox="0 0 32 32" enable-background="new 0 0 32 32" xml:space="preserve">
<g>
	<path fill="#5B77EE" d="M20.116,27.531c-2.531,0-7.349-3.929-7.349-6.572v-7.365c0-2.173,4.604-2.498,7.349-2.498
		c2.745,0,7.351,0.325,7.351,2.498v7.365C27.467,23.603,22.647,27.531,20.116,27.531z M20.116,12.096
		c-3.619,0-6.349,0.644-6.349,1.498v7.365c0,2.018,4.381,5.572,6.349,5.572c1.968,0,6.351-3.555,6.351-5.572v-7.365
		C26.467,12.74,23.737,12.096,20.116,12.096z"/>
	<polygon fill="#5B77EE" points="24.543,17.925 21.164,17.925 21.164,14.546 19.07,14.546 19.07,17.925 15.691,17.925 15.691,20.02 
		19.07,20.02 19.07,23.397 21.164,23.397 21.164,20.02 24.543,20.02 	"/>
	<path fill="#5B77EE" d="M17.641,26.66H7.086c-1.408,0-2.553-1.145-2.553-2.552V7.023c0-1.408,1.145-2.554,2.553-2.554h10.978
		c1.408,0,2.553,1.146,2.553,2.554v4.572c0,0.276-0.224,0.5-0.5,0.5s-0.5-0.224-0.5-0.5V7.023c0-0.857-0.697-1.554-1.553-1.554
		H7.086c-0.856,0-1.553,0.697-1.553,1.554v17.085c0,0.855,0.697,1.552,1.553,1.552h10.555c0.276,0,0.5,0.224,0.5,0.5
		S17.917,26.66,17.641,26.66z"/>
	<path fill="#5B77EE" d="M17.804,9.079H7.542c-0.276,0-0.5-0.224-0.5-0.5s0.224-0.5,0.5-0.5h10.262c0.276,0,0.5,0.224,0.5,0.5
		S18.08,9.079,17.804,9.079z"/>
	<path fill="#5B77EE" d="M13.491,13.492H7.542c-0.276,0-0.5-0.224-0.5-0.5s0.224-0.5,0.5-0.5h5.949c0.276,0,0.5,0.224,0.5,0.5
		S13.768,13.492,13.491,13.492z"/>
	<path fill="#5B77EE" d="M13.268,19.135H7.542c-0.276,0-0.5-0.224-0.5-0.5s0.224-0.5,0.5-0.5h5.726c0.276,0,0.5,0.224,0.5,0.5
		S13.544,19.135,13.268,19.135z"/>
	<path fill="#5B77EE" d="M11.418,23.041H7.542c-0.276,0-0.5-0.224-0.5-0.5s0.224-0.5,0.5-0.5h3.876c0.276,0,0.5,0.224,0.5,0.5
		S11.694,23.041,11.418,23.041z"/>
</g>
</svg>
