<?xml version="1.0" encoding="utf-8"?>
<!-- Generator: Adobe Illustrator 16.0.0, SVG Export Plug-In . SVG Version: 6.00 Build 0)  -->
<!DOCTYPE svg PUBLIC "-//W3C//DTD SVG 1.1//EN" "http://www.w3.org/Graphics/SVG/1.1/DTD/svg11.dtd">
<svg version="1.1" id="Layer_1" xmlns="http://www.w3.org/2000/svg" xmlns:xlink="http://www.w3.org/1999/xlink" x="0px" y="0px"
	 width="32px" height="32px" viewBox="0 0 32 32" enable-background="new 0 0 32 32" xml:space="preserve">
<g>
	<path fill="#5B77EE" d="M23.565,26.623H8.436c-2.428,0-4.403-1.975-4.403-4.403c0-2.428,1.976-4.403,4.403-4.403h15.13
		c2.428,0,4.402,1.975,4.402,4.403C27.968,24.648,25.993,26.623,23.565,26.623z M8.436,18.817c-1.877,0-3.403,1.527-3.403,3.403
		s1.526,3.403,3.403,3.403h15.13c1.876,0,3.402-1.526,3.402-3.403s-1.526-3.403-3.402-3.403H8.436z"/>
	<path fill="#5B77EE" d="M14.887,26.623l-0.006-1c0.297-0.003,2.901-0.118,2.901-3.073c0-3.104-2.124-3.725-2.215-3.75l0.256-0.967
		c0.029,0.008,2.959,0.816,2.959,4.717C18.782,25.759,16.234,26.617,14.887,26.623z"/>
	<path fill="#5B77EE" d="M16.584,8.126c0,1.24-1.008,2.248-2.25,2.248h-3.059c-1.24,0-2.247-1.007-2.247-2.248l0,0
		c0-1.242,1.007-2.249,2.247-2.249h3.059C15.576,5.877,16.584,6.884,16.584,8.126L16.584,8.126z"/>
	<polygon fill="#5B77EE" points="6.344,19.305 5.344,19.305 5.344,12.903 9.128,9.121 9.835,9.828 6.344,13.317 	"/>
	<polygon fill="#5B77EE" points="20.3,18.317 19.3,18.317 19.3,13.317 15.812,9.828 16.519,9.121 20.3,12.903 	"/>
	<rect x="9.028" y="7.626" fill="#FFFFFF" width="7.556" height="1"/>
</g>
</svg>
