<?xml version="1.0" encoding="utf-8"?>
<!-- Generator: Adobe Illustrator 16.0.0, SVG Export Plug-In . SVG Version: 6.00 Build 0)  -->
<!DOCTYPE svg PUBLIC "-//W3C//DTD SVG 1.1//EN" "http://www.w3.org/Graphics/SVG/1.1/DTD/svg11.dtd">
<svg version="1.1" id="Layer_1" xmlns="http://www.w3.org/2000/svg" xmlns:xlink="http://www.w3.org/1999/xlink" x="0px" y="0px"
	 width="32px" height="32px" viewBox="0 0 32 32" enable-background="new 0 0 32 32" xml:space="preserve">
<path fill="#5B77EE" d="M20.452,11.641h-8.111c-0.276,0-0.5-0.224-0.5-0.5V7.425c-0.01-0.083-0.016-0.214-0.016-0.348
	c0-2.516,2.046-4.563,4.562-4.563c2.31,0,4.278,1.769,4.534,4.049c0.02,0.052,0.03,0.107,0.03,0.166v4.411
	C20.952,11.417,20.728,11.641,20.452,11.641z M12.84,10.641h7.111V6.854c-0.007-0.026-0.012-0.054-0.014-0.082
	c-0.154-1.826-1.714-3.257-3.55-3.257c-1.964,0-3.562,1.598-3.562,3.563c0,0.103,0.004,0.202,0.014,0.301L12.84,10.641z"/>
<path fill="#5B77EE" d="M20.371,13.616h-7.875c-0.82,0-1.488-0.667-1.488-1.487s0.667-1.488,1.488-1.488h7.875
	c0.82,0,1.488,0.668,1.488,1.488S21.191,13.616,20.371,13.616z M12.496,11.641c-0.269,0-0.488,0.219-0.488,0.488
	c0,0.269,0.219,0.487,0.488,0.487h7.875c0.269,0,0.488-0.219,0.488-0.487c0-0.27-0.219-0.488-0.488-0.488H12.496z"/>
<path fill="#5B77EE" d="M18.253,6.962h-1.187V5.777c0-0.406-0.328-0.734-0.733-0.734c-0.405,0-0.734,0.328-0.734,0.734v1.185h-1.185
	c-0.405,0-0.734,0.328-0.734,0.734c0,0.404,0.329,0.733,0.734,0.733h1.185v1.187c0,0.404,0.33,0.734,0.734,0.734
	c0.406,0,0.733-0.33,0.733-0.734V8.43h1.187c0.405,0,0.734-0.329,0.734-0.733C18.988,7.29,18.658,6.962,18.253,6.962z"/>
<path fill="#5B77EE" d="M16.387,28.116c-0.004,0-0.009,0-0.014,0c-0.14-0.004-0.271-0.066-0.363-0.172l-1.902-2.182
	c-0.093-0.106-0.137-0.249-0.119-0.39l1.171-9.391c0.02-0.16,0.116-0.301,0.257-0.378l0.109-0.059l-3.223-1.57L3.877,17.25
	c-0.257,0.101-0.547-0.027-0.647-0.285c-0.1-0.257,0.027-0.547,0.285-0.646l8.629-3.354c0.13-0.051,0.275-0.045,0.4,0.017
	l4.06,1.977l3.609-1.967c0.134-0.072,0.296-0.08,0.437-0.02l8.508,3.662c0.253,0.109,0.371,0.403,0.262,0.656
	c-0.11,0.254-0.407,0.371-0.657,0.262l-8.285-3.565l-2.771,1.51c0.146,0.077,0.245,0.222,0.263,0.387l1.041,9.497
	c0.016,0.148-0.035,0.297-0.139,0.403l-2.126,2.182C16.651,28.062,16.522,28.116,16.387,28.116z M15.009,25.274l1.399,1.604
	l1.583-1.624l-0.984-8.988l-0.376-0.184L16.12,16.36L15.009,25.274z"/>
</svg>
