<?xml version="1.0" encoding="utf-8"?>
<!-- Generator: Adobe Illustrator 16.0.0, SVG Export Plug-In . SVG Version: 6.00 Build 0)  -->
<!DOCTYPE svg PUBLIC "-//W3C//DTD SVG 1.1//EN" "http://www.w3.org/Graphics/SVG/1.1/DTD/svg11.dtd">
<svg version="1.1" id="Layer_1" xmlns="http://www.w3.org/2000/svg" xmlns:xlink="http://www.w3.org/1999/xlink" x="0px" y="0px"
	 width="32px" height="32px" viewBox="0 0 32 32" enable-background="new 0 0 32 32" xml:space="preserve">
<g>
	<path fill="#5B77EE" d="M12.479,12.343c-2.645,0-4.796-2.151-4.796-4.796s2.151-4.796,4.796-4.796s4.796,2.151,4.796,4.796
		S15.124,12.343,12.479,12.343z M12.479,3.751c-2.093,0-3.796,1.703-3.796,3.796s1.703,3.796,3.796,3.796s3.796-1.703,3.796-3.796
		S14.572,3.751,12.479,3.751z"/>
	<path fill="#5B77EE" d="M12.479,8.345c-1.213,0-2.2-0.987-2.2-2.2s0.987-2.2,2.2-2.2s2.2,0.987,2.2,2.2S13.692,8.345,12.479,8.345z
		 M12.479,4.945c-0.662,0-1.2,0.539-1.2,1.2s0.538,1.2,1.2,1.2s1.2-0.539,1.2-1.2S13.142,4.945,12.479,4.945z"/>
	<rect x="8.374" y="6.539" fill="#5B77EE" width="2.49" height="1"/>
	<rect x="13.986" y="6.539" fill="#5B77EE" width="2.551" height="1"/>
	<path fill="#5B77EE" d="M18.948,19.869c0,3.27,0.676,6.774-1.613,8.023c-0.813,0.445-3.982,0-4.928,0
		c-1.667,0-3.19-0.765-4.345-2.023c-1.35-1.469-2.199-3.614-2.199-6c0-4.432,2.93-8.026,6.544-8.026S18.948,15.437,18.948,19.869z"
		/>
	<polygon fill="#FFFFFF" points="9.771,27.064 8.811,26.788 11.271,18.233 9.506,12.562 10.461,12.265 12.314,18.221 	"/>
	<polygon fill="#FFFFFF" points="17.716,27.406 13.458,18.277 14.896,12.598 15.865,12.843 14.515,18.177 18.622,26.983 	"/>
	<rect x="11.952" y="5.28" fill="#5B77EE" width="1" height="1.759"/>
	<rect x="11.6" y="5.659" fill="#5B77EE" width="1.76" height="1"/>
</g>
<rect x="20.837" y="4.78" fill="#5B77EE" width="5.3" height="1"/>
<rect x="20.837" y="6.968" fill="#5B77EE" width="5.3" height="1"/>
<polygon fill="#5B77EE" points="19.499,11.614 18.794,10.906 20.63,9.076 26.137,9.076 26.137,10.076 21.044,10.076 "/>
</svg>
