<?xml version="1.0" encoding="utf-8"?>
<!-- Generator: Adobe Illustrator 16.0.0, SVG Export Plug-In . SVG Version: 6.00 Build 0)  -->
<!DOCTYPE svg PUBLIC "-//W3C//DTD SVG 1.1//EN" "http://www.w3.org/Graphics/SVG/1.1/DTD/svg11.dtd">
<svg version="1.1" id="Layer_1" xmlns="http://www.w3.org/2000/svg" xmlns:xlink="http://www.w3.org/1999/xlink" x="0px" y="0px"
	 width="32px" height="32px" viewBox="0 0 32 32" enable-background="new 0 0 32 32" xml:space="preserve">
<g>
	<path fill="#5B77EE" d="M14.408,20.596H6.61c-0.276,0-0.5-0.224-0.5-0.5v-3.571c-0.009-0.081-0.016-0.208-0.016-0.335
		c0-2.43,1.977-4.406,4.407-4.406c2.229,0,4.128,1.708,4.378,3.909c0.019,0.051,0.028,0.105,0.028,0.162v4.241
		C14.908,20.372,14.685,20.596,14.408,20.596z M7.11,19.596h6.798v-3.622c-0.006-0.025-0.011-0.051-0.013-0.076
		c-0.149-1.746-1.64-3.114-3.394-3.114c-1.879,0-3.407,1.528-3.407,3.406c0,0.098,0.005,0.195,0.014,0.291L7.11,19.596z"/>
	<g>
		<path fill="#5B77EE" d="M14.331,22.496H6.76c-0.8,0-1.45-0.65-1.45-1.45s0.65-1.45,1.45-1.45h7.571c0.8,0,1.45,0.65,1.45,1.45
			S15.131,22.496,14.331,22.496z M6.76,20.596c-0.248,0-0.45,0.202-0.45,0.45s0.202,0.45,0.45,0.45h7.571
			c0.248,0,0.45-0.202,0.45-0.45s-0.202-0.45-0.45-0.45H6.76z"/>
		<path fill="#5B77EE" d="M12.296,16.079h-1.14v-1.141c0-0.389-0.317-0.706-0.706-0.706c-0.391,0-0.707,0.317-0.707,0.706v1.141
			h-1.14c-0.389,0-0.705,0.315-0.705,0.705s0.316,0.706,0.705,0.706h1.14v1.14c0,0.391,0.316,0.706,0.707,0.706
			c0.389,0,0.706-0.315,0.706-0.706v-1.14h1.14c0.39,0,0.705-0.316,0.705-0.706S12.686,16.079,12.296,16.079z"/>
		<path fill="#5B77EE" d="M14.621,20.224l-0.425-0.904c5.083-2.388,11.242-5.243,11.722-5.287c-0.017-0.037,0.039-0.337,0.039-0.532
			c0-0.24-0.089-0.355-0.156-0.422c-0.247-0.246-0.708-0.288-0.907-0.295H10.502v-1h14.386c0.09-0.002,1.022-0.001,1.612,0.58
			c0.298,0.293,0.456,0.687,0.456,1.137c0,0.665-0.248,1.465-0.948,1.528C25.48,15.168,18.737,18.29,14.621,20.224z"/>
		<path fill="#5B77EE" d="M11.524,11.221h-6.63c-0.276,0-0.5-0.224-0.5-0.5s0.224-0.5,0.5-0.5h5.674L7.488,5.781
			C7.33,5.555,7.387,5.243,7.613,5.085c0.228-0.156,0.539-0.101,0.696,0.126l3.626,5.225c0.106,0.153,0.119,0.353,0.032,0.517
			C11.881,11.117,11.71,11.221,11.524,11.221z"/>
		<path fill="#5B77EE" d="M17.725,11.221h-6.2c-0.169,0-0.326-0.085-0.418-0.227c-0.092-0.141-0.107-0.319-0.04-0.474l2.378-5.434
			c0.11-0.254,0.404-0.368,0.659-0.258c0.253,0.11,0.368,0.405,0.257,0.658l-2.071,4.733h5.436c0.276,0,0.5,0.224,0.5,0.5
			S18.001,11.221,17.725,11.221z"/>
		<path fill="#5B77EE" d="M11.45,12.626c-0.276,0-0.5-0.224-0.5-0.5v-1.405c0-0.276,0.224-0.5,0.5-0.5s0.5,0.224,0.5,0.5v1.405
			C11.95,12.402,11.727,12.626,11.45,12.626z"/>
		<path fill="#5B77EE" d="M26.133,14.967c-0.194,0-0.378-0.113-0.459-0.304c-0.109-0.254,0.009-0.548,0.263-0.656
			c1.021-0.437,1.633-0.995,1.819-1.66c0.147-0.523,0.005-1.034-0.142-1.374l-2.6,1.581c-0.235,0.143-0.543,0.067-0.687-0.168
			c-0.144-0.236-0.068-0.544,0.167-0.688l3.439-2.09l0.271,0.372c0.037,0.05,0.896,1.252,0.518,2.624
			c-0.269,0.977-1.074,1.758-2.392,2.322C26.265,14.954,26.199,14.967,26.133,14.967z"/>
		<path fill="#5B77EE" d="M16.549,19.271c-0.047,0-0.095-0.007-0.143-0.021c-0.265-0.079-0.416-0.357-0.336-0.622L18,12.141
			c0.055-0.186,0.212-0.322,0.403-0.352c0.196-0.029,0.383,0.055,0.49,0.214l2.26,3.345l1.63-3.203
			c0.125-0.247,0.426-0.345,0.672-0.219c0.246,0.125,0.344,0.426,0.219,0.672l-2.015,3.959c-0.081,0.158-0.238,0.262-0.415,0.272
			c-0.176,0.019-0.346-0.072-0.445-0.219l-2.144-3.171l-1.629,5.474C16.963,19.13,16.765,19.271,16.549,19.271z"/>
		<path fill="#5B77EE" d="M6.595,25.379c-0.001,0-0.003,0-0.005,0c-0.276-0.003-0.498-0.229-0.495-0.505
			c0.01-0.951,0.47-1.974,1.456-1.974h6.857c0.053,0.002,0.747-0.025,1.262,0.463c0.229,0.218,0.503,0.62,0.503,1.302
			c0,0.276-0.224,0.5-0.5,0.5s-0.5-0.224-0.5-0.5c0-0.259-0.063-0.452-0.187-0.572c-0.173-0.168-0.457-0.214-0.556-0.192H7.551
			c-0.368,0-0.455,0.822-0.456,0.983C7.092,25.158,6.869,25.379,6.595,25.379z"/>
		<path fill="#5B77EE" d="M8.447,23.9c-0.276,0-0.5-0.224-0.5-0.5v-1.404c0-0.276,0.224-0.5,0.5-0.5s0.5,0.224,0.5,0.5V23.4
			C8.947,23.677,8.724,23.9,8.447,23.9z"/>
		<path fill="#5B77EE" d="M13.001,23.9c-0.276,0-0.5-0.224-0.5-0.5v-1.404c0-0.276,0.224-0.5,0.5-0.5s0.5,0.224,0.5,0.5V23.4
			C13.501,23.677,13.277,23.9,13.001,23.9z"/>
	</g>
</g>
</svg>
